<?xml version="1.0" standalone="no"?>
<!DOCTYPE svg PUBLIC "-//W3C//DTD SVG 20010904//EN"
 "http://www.w3.org/TR/2001/REC-SVG-20010904/DTD/svg10.dtd">
<svg version="1.0" xmlns="http://www.w3.org/2000/svg"
 width="1024.000000pt" height="667.000000pt" viewBox="0 0 1024.000000 667.000000"
 preserveAspectRatio="xMidYMid meet">

<g transform="translate(0.000000,667.000000) scale(0.100000,-0.100000)"
fill="#DC143C" stroke="none">
<path d="M4916 6110 c-36 -71 -154 -287 -256 -470 -26 -47 -67 -121 -90 -165
-24 -44 -68 -125 -98 -180 -31 -55 -76 -138 -101 -185 -24 -47 -78 -146 -119
-220 -41 -74 -93 -169 -115 -210 -22 -41 -72 -133 -112 -205 -40 -71 -88 -159
-107 -195 -20 -36 -77 -141 -128 -235 -51 -93 -110 -202 -131 -241 -21 -39
-52 -95 -69 -123 -16 -29 -30 -54 -30 -56 0 -2 -17 -34 -38 -72 -22 -37 -58
-104 -82 -148 -24 -44 -83 -154 -133 -245 -50 -91 -101 -185 -115 -210 -13
-25 -50 -92 -82 -150 -84 -153 -229 -420 -338 -620 -52 -96 -127 -233 -167
-305 -39 -71 -91 -166 -115 -210 -23 -44 -58 -108 -76 -142 -19 -33 -34 -66
-34 -72 0 -14 5186 -16 5195 -2 3 5 -5 29 -18 53 -13 24 -48 88 -77 143 -29
55 -84 156 -123 225 -38 69 -90 163 -115 210 -25 47 -83 155 -130 240 -46 85
-103 189 -125 230 -22 41 -61 113 -87 160 -26 47 -63 114 -82 150 -20 36 -90
164 -156 285 -66 121 -134 247 -152 280 -18 33 -52 94 -75 135 -23 41 -57 102
-75 135 -96 175 -133 237 -145 241 -12 5 -112 -54 -378 -224 -107 -68 -117
-77 -101 -89 10 -7 28 -13 41 -13 43 0 91 -27 109 -61 15 -30 449 -759 526
-884 17 -27 125 -207 241 -400 115 -192 218 -362 228 -377 11 -14 19 -31 19
-37 0 -15 -3826 -16 -3835 -1 -3 6 2 22 13 38 10 15 43 72 72 127 29 55 72
134 95 175 23 41 60 109 82 150 22 41 80 147 128 235 48 88 103 189 123 225
47 88 90 167 117 215 24 43 35 63 185 340 125 233 183 341 265 500 74 143 155
297 220 420 23 44 80 152 125 240 46 88 100 192 120 230 91 172 143 271 221
423 l83 163 13 232 c7 128 18 295 24 372 6 77 9 165 8 195 l-4 55 -39 -75z"/>
<path d="M6421 1076 c-51 -18 -81 -62 -81 -119 0 -80 48 -127 131 -127 35 0
48 6 80 39 31 31 39 46 39 75 0 61 -23 101 -72 125 -50 24 -51 24 -97 7z m121
-46 c13 -14 23 -41 26 -71 4 -45 2 -51 -28 -79 -26 -25 -41 -30 -80 -30 -42 0
-52 4 -74 31 -44 52 -29 145 28 170 36 15 105 4 128 -21z"/>
<path d="M6417 1025 c-33 -23 -37 -30 -37 -68 0 -23 6 -50 14 -59 28 -38 110
-45 137 -12 18 22 4 27 -29 10 -34 -18 -58 -13 -72 15 -31 57 14 130 66 107
13 -6 24 -15 24 -20 0 -4 5 -8 10 -8 18 0 11 19 -12 34 -43 27 -62 27 -101 1z"/>
<path d="M4194 1051 c-68 -17 -130 -73 -161 -145 -18 -39 -16 -166 2 -209 38
-92 129 -148 244 -149 171 -1 281 95 281 246 0 80 -12 118 -52 171 -49 64
-103 88 -201 91 -45 2 -96 -1 -113 -5z m167 -62 c47 -33 63 -80 62 -183 -1
-141 -33 -195 -121 -204 -60 -5 -105 15 -129 61 -14 25 -18 56 -18 142 0 101
2 113 25 147 14 20 34 42 45 47 36 17 105 13 136 -10z"/>
<path d="M4823 953 c-12 -2 -38 -22 -57 -44 -38 -42 -46 -46 -46 -26 0 24 -46
71 -63 64 -15 -6 -17 -28 -17 -190 0 -208 1 -210 72 -205 l43 3 5 147 c4 129
8 150 26 175 12 15 33 29 47 31 26 3 30 0 75 -57 l19 -25 27 46 c14 24 26 47
26 50 0 3 -15 13 -34 22 -32 15 -75 18 -123 9z"/>
<path d="M5115 941 c-144 -66 -156 -267 -21 -358 43 -29 56 -33 117 -33 71 0
97 9 147 54 26 23 28 41 5 50 -11 5 -28 -5 -51 -29 -28 -29 -41 -35 -76 -35
-82 0 -116 49 -116 167 0 72 2 81 30 115 16 19 41 39 55 42 39 10 100 -11 119
-39 16 -25 50 -34 60 -16 9 14 -33 60 -75 81 -50 26 -139 26 -194 1z"/>
<path d="M6042 951 c-73 -19 -118 -100 -88 -159 19 -36 52 -56 128 -76 29 -7
69 -20 90 -29 78 -33 51 -97 -41 -97 -40 0 -54 6 -89 36 -41 35 -43 35 -67 20
-37 -24 -31 -43 25 -71 38 -20 64 -25 118 -25 119 0 182 43 182 125 0 69 -35
94 -197 135 -106 27 -79 121 31 107 25 -4 50 -16 72 -38 30 -29 35 -31 51 -18
44 34 43 44 -9 70 -47 24 -150 34 -206 20z"/>
<path d="M5512 937 c-28 -34 -55 -135 -56 -207 0 -137 52 -186 192 -181 25 1
43 12 77 46 l44 46 27 -46 c17 -30 32 -45 43 -43 14 3 16 28 19 201 l2 197
-53 0 -54 0 -5 -132 c-6 -152 -19 -189 -74 -216 -32 -15 -36 -15 -62 5 -45 34
-57 96 -39 212 8 53 18 104 22 114 6 14 1 17 -33 17 -22 0 -44 -6 -50 -13z"/>
</g>
</svg>
